<svg version="1.1" id="Capa_1" xmlns="http://www.w3.org/2000/svg" xmlns:xlink="http://www.w3.org/1999/xlink" x="0px" y="0px" viewBox="0 0 1200 1200" enable-background="new 0 0 1200 1200" xml:space="preserve">
<path d="M534.135,144.123c-0.843-3.373,9.558-17.499,9.558-17.499s15.18-5.06,24.878,6.325c9.699,11.385,7.309,26.565,6.677,26.354&#10;&#9;c-0.633-0.211-14.126-5.271-14.126-5.271s0.633-0.632,3.795-4.638c3.162-4.006-0.844-6.325-0.844-6.325s-2.741,9.066-13.915,9.909&#10;&#9;C538.984,153.822,534.979,147.497,534.135,144.123z M535.962,166.12c5.622-1.687,11.244,4.498,11.244,4.498&#10;&#9;s13.493-6.466,18.834-2.53c5.341,3.936,6.043,10.612,6.043,10.612s8.012-3.865,11.666,2.038c1.049,1.694,1.612,3.296,1.88,4.718&#10;&#9;c0.189,0.996,2.142,3.284,2.829,1.044c2.03-6.626,3.701-17.637,4.849-18.975c1.687-1.968-35.701-10.12-35.701-10.12&#10;&#9;s-15.18,1.406-23.332-5.903c-4.711-4.223-7.911-10.406-9.78-14.884c0.828-5.406,1.231-9.45,0.785-10.416&#10;&#9;c-1.687-3.654-10.666-5.134-10.666-5.134l-330.88-70.203c-1.941,1.598-3.879,5.118-5.665,9.742L278.16,83.03&#10;&#9;c0,0,16.445,5.61,2.93,3.282c-41.936-7.223-91.005-14.548-107.033-12.426c-4.413,18.443-6.105,41.531-0.443,46.132&#10;&#9;c8.996,7.309,330.583,68.59,330.583,68.59S531.244,167.535,535.962,166.12z M944.976,443.293&#10;&#9;c6.746-9.558,11.244-29.235,17.991-45.54c6.747-16.304,28.673-32.046,48.35-77.024c0.795-1.816,1.546-3.55,2.278-5.247&#10;&#9;c-40.144,15.853-56.11-6.7-56.11-6.7c24.573,8.024,47.951-0.951,62.868-9.544c10.582-26.756,10.329-35.177,8.956-54.408&#10;&#9;c-1.687-23.613-25.862-34.857-25.862-34.857s-4.498-10.12-4.498-15.18c0-3.645-17.797-3.497-27.751-3.13&#10;&#9;c-3.863,0.143-6.545,0.319-4.296,4.816c1.417,2.834-0.735,5.219-2.523,6.597c-5.861,0.488-14.349,1.254-21.31,2.121&#10;&#9;c1.819-1.699,6.31-4.075,11.271-9.12c8.008-8.144,17.393-20.386,19.872-26.584c4.498-11.244,4.498-13.493,4.498-13.493l2.249,6.747&#10;&#9;h10.682c0,0,21.927-59.595-18.553-90.517c-31.4-23.986-53.328-10.76-61.585-3.62c-2.388,2.065-3.076,2.138-1.514-0.069&#10;&#9;c3.151-4.452,10.396-11.853,25.431-15.988c0,0-30.922-7.309-48.35,2.811c-17.429,10.12-36.544,48.913-36.544,48.913&#10;&#9;s-33.733,3.936-33.733,7.309c0,2.785,43.304,8.253,58.408,10.075c3.19,0.385,0.154,0.969,0.154,0.969l-25.953,1.888l6.747,14.618&#10;&#9;c0,0-10.682,13.493-10.682,15.18c0,1.687,0.562,7.871,0.562,7.871l10.682,2.811l-7.871,10.682l4.498,4.498l-4.498,3.373l0.363,7.971&#10;&#9;c-15.084-6.898-41.844-15.866-68.391-15.56l-56.803-10.753c0.067-0.702,0.59-3.071,0.527-3.424&#10;&#9;c-0.178-1.01-11.548-1.81-18.108-3.296c-8.848-6.616-24.328-18.19-25.129-18.791c-1.124-0.843-33.733-9.839-33.733-9.839&#10;&#9;s-37.387,8.714-46.383,30.079c-8.996,21.364-10.401,28.954-10.401,28.954s-2.249,11.244,5.06,14.618&#10;&#9;c7.309,3.373,11.807-7.309,11.807-7.309s-3.373,26.424,5.06,27.268c8.433,0.843,9.839-5.341,9.839-5.341s1.406,9.276,8.433,9.839&#10;&#9;s12.65-7.309,12.65-7.309s1.406,5.341,5.903,5.622s16.867-19.678,16.867-19.678s11.244,3.654,18.834-1.124&#10;&#9;c2.375-1.495,3.91-2.302,4.899-2.706c5.613,3.141,18.433,9.952,20.401,7.765c0.577-0.641,1.64-3.197,2.922-6.798&#10;&#9;c7.438,2.412,20.894,7.318,34.184,14.95c7.384,4.241,18.013,9.371,23.051,13.493c18.554,15.18,79.835,28.954,103.448,26.143&#10;&#9;l26.55,14.929c-11.93-2.971-22.28-5.692-25.987-7.058c-10.682-3.936-11.244-0.562-44.978-3.936&#10;&#9;c-33.733-3.373-80.31-32.448-80.31-32.448s-22.154,3.916-34.382-0.722c-12.228-4.638-19.396-1.687-19.396-1.687l-28.884-13.915&#10;&#9;c0,0-6.957,19.818-15.391,20.24c-8.433,0.422-8.855-4.638-8.855-4.638s-11.385,8.855-18.974,3.373&#10;&#9;c-7.59-5.482-8.433-2.108-16.023-6.747c-7.59-4.638-6.325-16.445-6.325-16.445l-8.434-1.265l-8.855,18.553&#10;&#9;c0,0,38.372,26.143,51.021,38.371c12.65,12.228,51.021,19.396,51.021,19.396l16.023,2.53c0,0,2.952,4.217,12.228,5.903&#10;&#9;c8.631,1.569,52.647,8.614,62.811,15.36l2.113-2.751l18.002-23.432c0,0-2.751,20.647-19.412,36.838&#10;&#9;c-1.977,3.855-4.893,7.268-7.27,10.163l-0.304,0.225c-0.156,0.218-0.321,0.476-0.49,0.75c-1.302,1.619-2.363,3.062-2.884,4.31&#10;&#9;c-0.78,1.873-1.691,4.7-2.454,7.686c-6.194,16.383-13.552,42.045-12.726,47.411c1.124,7.309-24.175,30.36-25.3,39.355&#10;&#9;c-1.124,8.996,6.747,32.609,10.12,34.295c0.017,0.009,0.041,0.022,0.058,0.031c-3.81,5.82-7.703,13.075-5.821,16.133&#10;&#9;c0,0-20.501,17.049-31.625,36.685c-14.292,25.227-20.027,55.154-20.24,63.249c0,0,28.392-22.77,55.379-31.765&#10;&#9;c0,0-50.6,33.733-62.969,67.466c-12.369,33.733-22.121,67.064-22.121,67.064s36.738,11.646,47.983,77.988&#10;&#9;c0,0-49.475-105.697-91.079-71.964c0,0-28.111,82.084-28.111,91.079c0,8.996,21.364,13.493,21.364,13.493l-20.24,4.498l20.24,17.991&#10;&#9;l-22.489,2.249c0,0,2.249,34.857,0,61.844c-2.249,26.986-37.106,129.31-33.733,142.803s1.124,40.48,12.369,49.475&#10;&#9;s44.977,14.618,50.6-3.373c5.622-17.991,13.493-80.959,31.484-93.328c0,0-17.991,56.222-14.618,76.462&#10;&#9;c3.373,20.24-11.244,47.226-32.608,43.853c-21.365-3.373-51.724-23.613-52.849-26.986c-1.124-3.373-17.991,37.106-25.862,38.231&#10;&#9;c-7.871,1.125-24.738,7.871-24.738,24.738S548.612,1150,548.612,1150s73.325-32.305,75.634-33.743&#10;&#9;c12.977-8.075,55.925-35.592,55.925-46.092c0-12.369-29.235-37.106-29.235-37.106l7.871-57.346c0,0,55.097-51.724,42.729-141.679&#10;&#9;l83.208-106.821l-56.836,103.875c26.624,2.408,42.521,18.079,49.033,26.141c2.318,2.87,0.363,1.7-1.477,0.282&#10;&#9;c-14.967-11.536-41.872-17.826-51.212-19.742l-4.724,8.634c0,0-17.991,21.364,28.111,56.222&#10;&#9;c46.102,34.857,146.176,164.167,146.176,164.167s15.742,17.991,21.365-13.493c0,0,11.244,23.613,6.746,37.106&#10;&#9;c-4.498,13.493-12.369,30.36-12.369,30.36s-13.493,5.622-13.493,15.742c0,10.12,0,10.12,0,10.12L951.16,1150&#10;&#9;c0,0,26.986-11.244,33.733-44.977c6.746-33.733,0.897-54.274,5.622-51.724c4.725,2.55,7.871,22.489,7.871,22.489&#10;&#9;s33.733-62.968,23.613-73.088c-10.12-10.12-44.977-10.12-44.977-10.12l-6.747-15.742c0,0-41.604-28.111-65.217-67.466&#10;&#9;c-23.613-39.355-42.729-74.213-84.333-92.204l-30.36-5.622l24.738-13.493c0,0-2.249-69.715,5.622-94.452&#10;&#9;c7.871-24.738,10.12-30.36,10.12-30.36s62.968-51.724,64.092-85.457c0.688-20.639-7.461-42.947-13.892-57.167&#10;&#9;c-4.08-9.021-7.472-14.797-7.472-14.797l7.617,3.385l12.623,5.61l4.562-10.427c5.28-0.294,8.738-0.817,10.618-0.817&#10;&#9;c4.143,0,4.052-9.329,7.395-19.523c-8.082-17.138,4.973-65.372,4.973-65.372c0.372,11.917,3.458,33.939,5.989,48.273&#10;&#9;c0.428-0.355,0.862-0.707,1.32-1.047C946.1,462.971,938.229,452.851,944.976,443.293z M544.677,246.587&#10;&#9;c5.86,0.806,14.258-3.268,15.883-4.568c11.114-8.9,29.562-36.644,27.013-41.391c-1.342-2.5-4.44-3.917-7.209-3.297&#10;&#9;c3.083-3.164,3.342-8.669,0.568-12.109c-2.773-3.44-8.207-4.355-11.954-2.013c1.787-1.117-1.283-6.343-2.003-7.306&#10;&#9;c-1.469-1.962-3.48-3.862-5.854-4.612c-2.423-0.765-5.1-0.294-7.411,0.762c-2.311,1.055-4.323,2.656-6.309,4.24&#10;&#9;c-4.718-9.089-14.787-3.312-20.779,1.123c-8.308,6.149-16.435,12.749-24.392,19.345c-1.406,2.249-3.092,4.217-0.562,8.996&#10;&#9;c0.41,0.773,3.049,4.677,6.325,6.676c2.745,1.676,6.228,1.612,6.401,1.137c-1.147,3.157,0.022,6.691,1.675,9.615&#10;&#9;c3.791,6.705,10.241,11.858,17.618,14.073c0.613,0.184,1.257,0.369,1.719,0.811c0,0,10.309-6.751,10.958-5.817&#10;&#9;s-8.693,9.742-8.693,9.742C539.041,243.835,541.389,246.135,544.677,246.587z" style="fill: rgb(255, 255, 255);"/>
</svg>